<?xml version="1.0" encoding="UTF-8" standalone="no"?>
<!DOCTYPE svg PUBLIC "-//W3C//DTD SVG 1.1//EN" "http://www.w3.org/Graphics/SVG/1.1/DTD/svg11.dtd">
<svg version="1.1" xmlns="http://www.w3.org/2000/svg" xmlns:xlink="http://www.w3.org/1999/xlink" preserveAspectRatio="xMidYMid meet" viewBox="0 0 640 640" width="512" height="512"><defs><path d="M573.9 322.84C573.9 460.82 461.88 572.84 323.9 572.84C185.92 572.84 73.9 460.82 73.9 322.84C73.9 184.86 185.92 72.84 323.9 72.84C461.88 72.84 573.9 184.86 573.9 322.84Z" id="aaqVaI18K"></path><path d="M528.46 407.92C528.46 431.88 508.65 451.34 484.26 451.34C459.87 451.34 440.07 431.88 440.07 407.92C440.07 383.96 459.87 364.51 484.26 364.51C508.65 364.51 528.46 383.96 528.46 407.92Z" id="c2yATj83My"></path><path d="M342.96 446.71C342.96 470.68 323.16 490.13 298.77 490.13C274.37 490.13 254.57 470.68 254.57 446.71C254.57 422.75 274.37 403.3 298.77 403.3C323.16 403.3 342.96 422.75 342.96 446.71Z" id="a4m0Yq0rR"></path><path d="M360.51 455.3C360.51 479.26 340.71 498.72 316.32 498.72C291.93 498.72 272.12 479.26 272.12 455.3C272.12 431.34 291.93 411.89 316.32 411.89C340.71 411.89 360.51 431.34 360.51 455.3Z" id="aVQvOipc0"></path><path d="M544.89 416.7C544.89 440.66 525.09 460.12 500.69 460.12C476.3 460.12 456.5 440.66 456.5 416.7C456.5 392.74 476.3 373.28 500.69 373.28C525.09 373.28 544.89 392.74 544.89 416.7Z" id="cakw8W1nu"></path><path d="M416.37 359.01C416.37 382.97 396.56 402.42 372.17 402.42C347.78 402.42 327.98 382.97 327.98 359.01C327.98 335.05 347.78 315.59 372.17 315.59C396.56 315.59 416.37 335.05 416.37 359.01Z" id="d3lOPdB7Pl"></path><path d="M230.87 397.8C230.87 421.76 211.07 441.21 186.68 441.21C162.29 441.21 142.48 421.76 142.48 397.8C142.48 373.84 162.29 354.38 186.68 354.38C211.07 354.38 230.87 373.84 230.87 397.8Z" id="a15aWQ9AS"></path><path d="M248.43 406.39C248.43 430.35 228.62 449.8 204.23 449.8C179.84 449.8 160.04 430.35 160.04 406.39C160.04 382.43 179.84 362.97 204.23 362.97C228.62 362.97 248.43 382.43 248.43 406.39Z" id="a11iFv5Q73"></path><path d="M432.8 367.79C432.8 391.75 413 411.2 388.61 411.2C364.21 411.2 344.41 391.75 344.41 367.79C344.41 343.82 364.21 324.37 388.61 324.37C413 324.37 432.8 343.82 432.8 367.79Z" id="crg6kSbWV"></path><path d="M494.21 351.52C497.55 350.8 497.99 346.21 494.84 344.88C471.07 334.84 409.14 308.66 385.15 298.52C379.18 295.99 372.58 295.35 366.23 296.68C325.46 305.21 214.12 328.49 173.65 336.95C170.17 337.68 169.69 342.46 172.96 343.86C196.66 354.02 259.54 380.97 283.84 391.38C288.79 393.5 294.27 394.04 299.53 392.92C340.64 384.18 453.66 360.14 494.21 351.52Z" id="b3kLY9hhyV"></path><path d="M398.9 311.91C401.08 304.97 401.63 297.61 400.51 290.42C399.86 286.22 399.15 281.65 398.38 276.73C397.65 272.01 395.26 267.7 391.64 264.57C381.5 255.81 354.68 232.64 344.04 223.45C342.02 221.7 339.45 220.7 336.78 220.62C332.43 220.49 328.3 220.37 325.14 220.28C321.7 220.18 320.01 224.42 322.58 226.72C333.39 236.39 360.29 260.45 371.6 270.57C374.21 272.91 374.03 277.05 371.21 279.14C353.56 292.26 306.02 327.61 288.36 340.73C285.87 342.58 286.19 346.4 288.95 347.82C294.85 350.85 307.18 357.18 313.23 360.29C316.6 362.02 320.48 362.45 324.14 361.5C337.03 358.15 370.88 349.35 383.99 345.95C386.86 345.2 389.15 343.03 390.03 340.19C392.47 332.43 396.84 318.48 398.9 311.91Z" id="a6j47m47C9"></path><path d="M258.14 162.93L301.66 155.05L391.12 177.3L391.12 217.16L350.98 231.52L256.69 206.96L258.14 162.93Z" id="aaizzTLlC"></path><path d="M286.67 191.82C286.67 197.12 282.49 201.43 277.33 201.43C272.17 201.43 267.98 197.12 267.98 191.82C267.98 186.51 272.17 182.2 277.33 182.2C282.49 182.2 286.67 186.51 286.67 191.82Z" id="b3BfiXCENA"></path><path d="M343.21 206.73C343.21 212.04 339.02 216.35 333.87 216.35C328.71 216.35 324.52 212.04 324.52 206.73C324.52 201.43 328.71 197.12 333.87 197.12C339.02 197.12 343.21 201.43 343.21 206.73Z" id="f3G5oUgOo"></path></defs><g><g><g><use xlink:href="#aaqVaI18K" opacity="1" fill="#000000" fill-opacity="1"></use></g><g><use xlink:href="#c2yATj83My" opacity="1" fill="#b0b0b0" fill-opacity="1"></use></g><g><use xlink:href="#a4m0Yq0rR" opacity="1" fill="#b0b0b0" fill-opacity="1"></use></g><g><use xlink:href="#aVQvOipc0" opacity="1" fill="#000000" fill-opacity="1"></use></g><g><use xlink:href="#cakw8W1nu" opacity="1" fill="#000000" fill-opacity="1"></use></g><g><use xlink:href="#d3lOPdB7Pl" opacity="1" fill="#3e3e3e" fill-opacity="1"></use><g><use xlink:href="#d3lOPdB7Pl" opacity="1" fill-opacity="0" stroke="#b0b0b0" stroke-width="1" stroke-opacity="1"></use></g></g><g><use xlink:href="#a15aWQ9AS" opacity="1" fill="#b0b0b0" fill-opacity="1"></use></g><g><use xlink:href="#a11iFv5Q73" opacity="1" fill="#000000" fill-opacity="1"></use></g><g><use xlink:href="#crg6kSbWV" opacity="1" fill="#000000" fill-opacity="1"></use></g><g><use xlink:href="#b3kLY9hhyV" opacity="1" fill="#808080" fill-opacity="1"></use><g><use xlink:href="#b3kLY9hhyV" opacity="1" fill-opacity="0" stroke="#000000" stroke-width="4" stroke-opacity="1"></use></g></g><g><use xlink:href="#a6j47m47C9" opacity="1" fill="#b9b9b9" fill-opacity="1"></use><g><use xlink:href="#a6j47m47C9" opacity="1" fill-opacity="0" stroke="#000000" stroke-width="4" stroke-opacity="1"></use></g></g><g><use xlink:href="#aaizzTLlC" opacity="1" fill="#c8c8c8" fill-opacity="1"></use><g><use xlink:href="#aaizzTLlC" opacity="1" fill-opacity="0" stroke="#000000" stroke-width="3" stroke-opacity="1"></use></g></g><g><use xlink:href="#b3BfiXCENA" opacity="1" fill="#ffffff" fill-opacity="1"></use><g><use xlink:href="#b3BfiXCENA" opacity="1" fill-opacity="0" stroke="#000000" stroke-width="2" stroke-opacity="1"></use></g></g><g><use xlink:href="#f3G5oUgOo" opacity="1" fill="#ffffff" fill-opacity="1"></use><g><use xlink:href="#f3G5oUgOo" opacity="1" fill-opacity="0" stroke="#000000" stroke-width="2" stroke-opacity="1"></use></g></g></g></g></svg>